<svg viewBox="0 0 100 22" fill="none" xmlns="http://www.w3.org/2000/svg"><path d="M58.896 5.786c1.919 0 3.402.434 4.45 1.304 1.047.87 1.58 2.145 1.6 3.826h-2.672c-.02-1.997-1.165-2.995-3.436-2.995-.94 0-1.684.192-2.232.578-.548.385-.822.904-.822 1.557 0 .435.102.79.308 1.067.206.277.475.504.808.682.332.179.724.322 1.174.43.45.11.93.213 1.439.312.666.138 1.351.292 2.056.46a6.62 6.62 0 011.894.755 4.147 4.147 0 011.38 1.365c.363.573.543 1.334.543 2.283a3.8 3.8 0 01-.47 1.883 4.39 4.39 0 01-1.291 1.438c-.548.396-1.2.702-1.954.92a8.805 8.805 0 01-2.452.326c-2.114 0-3.74-.464-4.874-1.394-1.098-.898-1.672-2.165-1.727-3.8h2.733c.035 1 .372 1.758 1.02 2.273.685.544 1.655.815 2.907.815 1.038 0 1.836-.192 2.394-.578.558-.386.837-.954.837-1.705 0-.475-.108-.855-.323-1.142a2.514 2.514 0 00-.867-.711 5.293 5.293 0 00-1.248-.445c-.47-.109-.96-.213-1.468-.312-.67-.12-1.336-.258-1.997-.415a6.234 6.234 0 01-1.806-.726 3.862 3.862 0 01-1.322-1.35c-.343-.573-.514-1.324-.514-2.253 0-.653.142-1.25.426-1.794a4.212 4.212 0 011.204-1.409c.519-.395 1.14-.702 1.865-.92.725-.217 1.537-.325 2.437-.325zm-14.242 0c2.368 0 4.106.78 5.212 2.342 1.106 1.562 1.66 3.766 1.66 6.613H40.219c.038.752.176 1.438.411 2.06a4.99 4.99 0 00.954 1.603c.388.434.857.787 1.38 1.037a3.935 3.935 0 001.719.371c.979 0 1.815-.227 2.51-.682.695-.455 1.308-1.27 1.473-2.348h2.86c-.337 1.886-1.161 3.094-2.424 3.934-1.263.84-2.765 1.26-4.508 1.26-2.33 0-4.11-.716-5.344-2.15-1.233-1.433-1.85-3.414-1.85-5.945 0-1.146.166-2.214.499-3.203a7.553 7.553 0 011.453-2.58 6.65 6.65 0 012.291-1.705c.89-.405 1.894-.607 3.01-.607zm-21.364 0c1.135 0 2.158.197 3.069.593.91.395 1.683.953 2.32 1.675.636.722 1.126 1.577 1.468 2.565.343.989.514 2.076.514 3.262s-.172 2.279-.514 3.277c-.343.998-.832 1.853-1.468 2.565a6.56 6.56 0 01-2.335 1.66c-.92.396-1.948.594-3.083.594-1.116 0-2.125-.198-3.025-.594a6.62 6.62 0 01-2.306-1.66c-.636-.712-1.12-1.567-1.453-2.565-.333-.998-.5-2.09-.5-3.277 0-1.186.172-2.273.515-3.261.342-.99.826-1.844 1.453-2.566a6.363 6.363 0 012.305-1.675c.91-.396 1.924-.593 3.04-.593zm58.715 0c1.43 0 2.545.217 3.348.652.803.435 1.4.988 1.791 1.66a5.58 5.58 0 01.72 2.24c.087.792.13 1.589.132 2.387v4.18c0 .89.024 1.711.073 2.462.046.729.149 1.453.309 2.165h-2.525c-.048-.27-.087-.542-.118-.815a16.16 16.16 0 01-.089-1.26c-.645.87-1.39 1.487-2.23 1.852-.843.366-1.812.55-2.909.55-1.684 0-2.98-.43-3.89-1.29-.911-.86-1.366-1.973-1.366-3.337 0-.83.161-1.527.484-2.09a4.176 4.176 0 011.293-1.395 6.636 6.636 0 011.864-.86 15.798 15.798 0 012.173-.474 34.372 34.372 0 012.232-.252c.744-.059 1.43-.128 2.056-.208v-.534c0-1.145-.264-2.03-.793-2.653-.529-.623-1.38-.934-2.555-.934-1.057 0-1.908.262-2.554.785-.647.524-.97 1.3-.97 2.328H75.81c0-.79.151-1.502.455-2.135a4.65 4.65 0 011.278-1.616c.547-.445 1.199-.79 1.953-1.038.753-.247 1.59-.37 2.51-.37zm-10.9-3.262V6.23h3.289v2.254h-3.29v7.621c0 .534.015 1.013.045 1.438.029.425.102.781.22 1.068.117.287.299.504.543.653.244.148.582.222 1.013.222.215 0 .445-.005.69-.015.245-.01.524-.054.837-.134v2.195c-.802.178-1.546.267-2.232.267a5.38 5.38 0 01-1.6-.223 2.766 2.766 0 01-1.204-.726c-.323-.337-.573-.79-.749-1.364-.177-.573-.264-1.275-.264-2.105V8.484h-2.79V6.23h2.79V2.524h2.701zm26.464 3.528c.568 0 1.135.06 1.703.178v2.402a24.9 24.9 0 00-.94-.149 6.452 6.452 0 00-.85-.059c-.823 0-1.494.144-2.013.43a3.09 3.09 0 00-1.218 1.216c-.293.524-.5 1.162-.617 1.913a16.433 16.433 0 00-.176 2.52v7.029h-2.702V6.23h2.555v2.254c.587-.93 1.233-1.566 1.938-1.913a5.197 5.197 0 012.32-.519zM35.374.003v21.529h-2.701V.002h2.701v.001zm-28.03 0c.9 0 1.84.04 2.82.118a7.72 7.72 0 012.877.83 4.995 4.995 0 012.13 2.24c.479.978.719 2.08.719 3.306 0 1.305-.26 2.416-.779 3.336a5.876 5.876 0 01-2.099 2.18c-.607.356-1.4.618-2.379.786-.979.168-2.135.252-3.465.252H3.761v8.48H.883V.004h6.46zM85.352 14.06c-.568.08-1.272.144-2.114.193a13.09 13.09 0 00-2.438.37c-.783.198-1.449.5-1.996.905-.549.405-.823.993-.823 1.765 0 .75.28 1.368.837 1.853.559.485 1.326.726 2.305.726.548 0 1.077-.068 1.587-.208a3.16 3.16 0 001.35-.756c.392-.365.705-.87.94-1.512s.353-1.468.353-2.476v-.86zM23.29 7.98a4.14 4.14 0 00-1.864.416A4.017 4.017 0 0020 9.58c-.392.514-.695 1.132-.91 1.854-.216.721-.324 1.527-.324 2.417 0 .89.103 1.7.309 2.431.205.732.503 1.36.896 1.883a4.1 4.1 0 001.424 1.216c.558.287 1.179.43 1.864.43.706 0 1.346-.143 1.924-.43a4.095 4.095 0 001.454-1.2c.39-.514.694-1.132.91-1.855.215-.72.323-1.527.323-2.417 0-.89-.108-1.694-.323-2.416-.216-.722-.524-1.345-.925-1.868a4.25 4.25 0 00-1.439-1.216c-.558-.287-1.19-.43-1.895-.43h.001zm21.246 0c-1.155 0-2.105.372-2.85 1.113-.743.741-1.213 1.883-1.408 3.425h8.37c-.158-1.542-.608-2.684-1.352-3.425-.744-.741-1.664-1.112-2.76-1.112zM7.461 2.375h-3.7v8.305h3.7c.744 0 1.42-.035 2.027-.104.607-.069 1.076-.183 1.41-.34a3.357 3.357 0 001.511-1.514 4.815 4.815 0 00.515-2.223c0-.81-.171-1.548-.515-2.21a3.377 3.377 0 00-1.511-1.497c-.334-.178-.803-.291-1.41-.34a25.001 25.001 0 00-2.026-.076z" fill="#000"/></svg>